# xmcd CD database file generated by OrangeCD 5.2
#
# Track frame offsets:
#	150
#	13367
#	28800
#	42390
#	61320
#	80030
#	93177
#	110322
#	125610
#	146200
#	164207
#	190325
#
# Disc length: 2798 seconds
#
# Revision: 0
# Processed by: cddbd v1.5.1PL0 Copyright (c) Steve Scherf et al.
# Submitted via: OrangeCD 5.2
#
DISCID=b20aec0c
DTITLE=Four Tops - The Best Of The Four Tops Volume 2
DYEAR=2005
DGENRE=Motown Male/ Groups
TTITLE0=Keeper Of The Castle
TTITLE1=Are You Man Enough
TTITLE2=Sweet Understanding Love
TTITLE3=One Chain Don't Make No Prison
TTITLE4=Midnight Flower
TTITLE5=Seven Lonely Nights
TTITLE6=Catfish
TTITLE7=When She Was My Girl
TTITLE8=Tonight I'm Going To Love You All Over
TTITLE9=I Believe In You And Me
TTITLE10=The Temptations And Four Tops Medley 
TTITLE11=I Just Can't Walk Alone
EXTD=
EXTT0=
EXTT1=
EXTT2=
EXTT3=
EXTT4=
EXTT5=
EXTT6=
EXTT7=
EXTT8=
EXTT9=
EXTT10=
EXTT11=
PLAYORDER=
